<svg width="271" height="30" viewBox="0 0 271 30" fill="none" xmlns="http://www.w3.org/2000/svg">
<path d="M7.95996 17.6699C9.15958 16.7228 10.9156 17.0222 11.7334 18.3135L16.6279 26.0459C17.7138 27.7611 16.4821 29.9997 14.4521 30H2.62012C1.19739 29.9999 0.0440413 28.8466 0.0439453 27.4238V25.1689C0.0439516 24.3807 0.40493 23.636 1.02344 23.1475L7.95996 17.6699ZM24.3086 4.99902C25.1395 4.29058 26.3897 4.40049 27.084 5.24316L29.5195 8.2002C30.2598 9.09938 30.0538 10.443 29.0781 11.0791L26.4902 12.7656C24.9803 13.7498 24.9996 15.968 26.5264 16.9258L29.084 18.5303C30.0611 19.1432 30.2969 20.4645 29.5928 21.3779L27.3193 24.3271C26.5517 25.3226 25.0573 25.3446 24.2607 24.3721L17.7793 16.459C16.2017 14.5328 16.4545 11.698 18.3486 10.082L24.3086 4.99902ZM15.918 0C17.776 0 18.5638 2.36639 17.0762 3.47949L3.08984 13.9424C1.81573 14.8955 0 13.9857 0 12.3945V1.93262C0 0.865464 0.865464 0 1.93262 0H15.918Z" fill="black"/>
<path d="M40.6195 21H39.1995V7.6H40.6195V13.64H45.2795L49.4995 7.6H51.1995L46.4995 14.22L51.2195 21H49.5195L45.3195 15.02H40.6195V21ZM57.3761 21.2C54.1961 21.2 52.1761 19.2 52.1761 16.06C52.1761 13.06 54.1761 10.92 57.3561 10.92C60.2561 10.92 62.3161 12.6 62.3161 15.54C62.3161 15.9 62.2761 16.2 62.2161 16.46H53.5161C53.5961 18.68 54.7361 20.02 57.3561 20.02C59.6761 20.02 60.7561 19.16 60.7561 17.72V17.58H62.1761V17.72C62.1761 19.78 60.1361 21.2 57.3761 21.2ZM57.3361 12.1C54.7761 12.1 53.6161 13.42 53.5161 15.58H60.9761C60.9761 15.48 60.9761 15.38 60.9761 15.28C60.9761 13.2 59.6561 12.1 57.3361 12.1ZM65.4795 21H64.1995V7.6H65.6195V13.88H65.7195C66.1395 12.18 67.5595 10.92 69.9395 10.92C73.0395 10.92 74.7395 13.06 74.7395 16.06C74.7395 19.06 73.0395 21.2 69.8195 21.2C67.6195 21.2 66.0395 20.06 65.5795 18.08H65.4795V21ZM65.6195 16.22C65.6195 18.56 67.0995 19.9 69.4795 19.9C71.8395 19.9 73.2995 18.92 73.2995 16.06C73.2995 13.2 71.7995 12.24 69.5195 12.24C67.0195 12.24 65.6195 13.6 65.6195 16.04V16.22ZM81.1847 21.2C78.0047 21.2 75.9847 19.2 75.9847 16.06C75.9847 13.06 77.9847 10.92 81.1647 10.92C84.0647 10.92 86.1247 12.6 86.1247 15.54C86.1247 15.9 86.0847 16.2 86.0247 16.46H77.3247C77.4047 18.68 78.5447 20.02 81.1647 20.02C83.4847 20.02 84.5647 19.16 84.5647 17.72V17.58H85.9847V17.72C85.9847 19.78 83.9447 21.2 81.1847 21.2ZM81.1447 12.1C78.5847 12.1 77.4247 13.42 77.3247 15.58H84.7847C84.7847 15.48 84.7847 15.38 84.7847 15.28C84.7847 13.2 83.4647 12.1 81.1447 12.1ZM94.0681 21H91.9281C89.9681 21 88.7081 20.18 88.7081 17.86V12.34H86.9481V11.12H88.7081V8.76H90.1481V11.12H94.0681V12.34H90.1481V17.94C90.1481 19.32 90.8281 19.7 92.2681 19.7H94.0681V21ZM99.7653 21.2C96.9453 21.2 95.5653 19.24 95.5653 16.9V11.12H96.9853V16.68C96.9853 18.74 97.9853 19.92 100.265 19.92C102.685 19.92 103.945 18.46 103.945 15.92V11.12H105.365V21H104.085V17.92H103.985C103.645 19.6 102.225 21.2 99.7653 21.2ZM109.174 21H107.754V7.6H109.174V21ZM114.303 21.2C112.363 21.2 111.043 20.28 111.043 18.68C111.043 17.06 112.383 16.36 114.223 16.16L118.923 15.64V14.88C118.923 12.96 118.083 12.2 115.923 12.2C113.803 12.2 112.683 12.96 112.683 14.7V14.78H111.263V14.7C111.263 12.62 112.983 10.92 116.023 10.92C119.023 10.92 120.303 12.64 120.303 14.82V21H119.023V18.34H118.923C118.343 20.16 116.603 21.2 114.303 21.2ZM112.463 18.58C112.463 19.58 113.123 20.1 114.623 20.1C117.023 20.1 118.923 19.04 118.923 16.66V16.58L114.663 17.06C113.183 17.2 112.463 17.56 112.463 18.58ZM124.057 21H122.637V11.12H123.917V14.22H124.017C124.357 12.54 125.757 10.92 128.217 10.92C130.997 10.92 132.377 12.9 132.377 15.24V21H130.957V15.44C130.957 13.4 129.977 12.22 127.717 12.22C125.317 12.22 124.057 13.68 124.057 16.22V21ZM143.56 21.2C139.62 21.2 137.78 19.32 137.78 16.76V16.64H139.22V16.9C139.22 18.82 140.42 19.86 143.56 19.86C146.24 19.86 147.46 19.12 147.46 17.6C147.46 16.1 146.56 15.56 144.6 15.16L141.76 14.62C139.58 14.2 137.84 13.28 137.84 11.06C137.84 9.24 139.4 7.4 143.24 7.4C147.02 7.4 148.7 9.4 148.7 11.84V11.96H147.26V11.72C147.26 9.78 146.06 8.74 143.14 8.74C140.48 8.74 139.28 9.5 139.28 10.96C139.28 12.48 140.16 12.94 142.14 13.36L144.96 13.92C147.36 14.38 148.9 15.4 148.9 17.48C148.9 19.4 147.28 21.2 143.56 21.2ZM155.442 21.2C152.262 21.2 150.242 19.2 150.242 16.06C150.242 13.06 152.242 10.92 155.422 10.92C158.322 10.92 160.382 12.6 160.382 15.54C160.382 15.9 160.342 16.2 160.282 16.46H151.582C151.662 18.68 152.802 20.02 155.422 20.02C157.742 20.02 158.822 19.16 158.822 17.72V17.58H160.242V17.72C160.242 19.78 158.202 21.2 155.442 21.2ZM155.402 12.1C152.842 12.1 151.682 13.42 151.582 15.58H159.042C159.042 15.48 159.042 15.38 159.042 15.28C159.042 13.2 157.722 12.1 155.402 12.1ZM163.686 21H162.266V11.12H163.546V13.82H163.646C163.946 12.24 165.066 10.92 167.126 10.92C169.406 10.92 170.406 12.6 170.406 14.44V15.42H168.986V14.66C168.986 12.98 168.286 12.16 166.566 12.16C164.566 12.16 163.686 13.42 163.686 15.64V21ZM173.471 9.86H172.051V7.6H173.471V9.86ZM173.471 21H172.051V11.12H173.471V21ZM180 21.2C177.18 21.2 175.8 19.24 175.8 16.9V11.12H177.22V16.68C177.22 18.74 178.22 19.92 180.5 19.92C182.92 19.92 184.18 18.46 184.18 15.92V11.12H185.6V21H184.32V17.92H184.22C183.88 19.6 182.46 21.2 180 21.2ZM192.329 21.2C189.289 21.2 187.529 19.98 187.529 17.7V17.66H188.949V17.78C188.949 19.44 189.929 20.02 192.349 20.02C194.569 20.02 195.329 19.5 195.329 18.36C195.329 17.32 194.709 16.98 193.069 16.72L190.429 16.34C188.629 16.1 187.489 15.4 187.489 13.76C187.489 12.02 189.149 10.92 191.869 10.92C194.709 10.92 196.549 12.12 196.549 14.44V14.48H195.129V14.38C195.129 12.9 194.349 12.1 191.829 12.1C189.749 12.1 188.889 12.6 188.889 13.78C188.889 14.8 189.409 15.16 191.049 15.4L193.469 15.74C195.589 16.04 196.729 16.76 196.729 18.36C196.729 20.22 194.889 21.2 192.329 21.2ZM203.686 21H202.266V7.6H208.426C211.326 7.6 213.366 9.26 213.366 12.12C213.366 15 211.326 16.66 208.426 16.66H203.686V21ZM208.306 8.9H203.686V15.36H208.306C210.666 15.36 211.926 14.4 211.926 12.12C211.926 9.88 210.666 8.9 208.306 8.9ZM216.323 21H214.903V11.12H216.183V13.82H216.283C216.583 12.24 217.703 10.92 219.763 10.92C222.043 10.92 223.043 12.6 223.043 14.44V15.42H221.623V14.66C221.623 12.98 220.923 12.16 219.203 12.16C217.203 12.16 216.323 13.42 216.323 15.64V21ZM229.528 21.2C226.308 21.2 224.168 19.06 224.168 16.06C224.168 13.06 226.308 10.92 229.528 10.92C232.768 10.92 234.908 13.06 234.908 16.06C234.908 19.06 232.768 21.2 229.528 21.2ZM229.528 19.92C232.248 19.92 233.508 18.46 233.508 16.06C233.508 13.68 232.248 12.2 229.528 12.2C226.808 12.2 225.568 13.68 225.568 16.06C225.568 18.46 226.808 19.92 229.528 19.92ZM238.237 9.86H236.817V7.6H238.237V9.86ZM235.177 24.4H234.417V23.24H235.257C236.257 23.24 236.817 22.84 236.817 21.76V11.12H238.237V21.46C238.237 23.62 236.917 24.4 235.177 24.4ZM245.345 21.2C242.165 21.2 240.145 19.2 240.145 16.06C240.145 13.06 242.145 10.92 245.325 10.92C248.225 10.92 250.285 12.6 250.285 15.54C250.285 15.9 250.245 16.2 250.185 16.46H241.485C241.565 18.68 242.705 20.02 245.325 20.02C247.645 20.02 248.725 19.16 248.725 17.72V17.58H250.145V17.72C250.145 19.78 248.105 21.2 245.345 21.2ZM245.305 12.1C242.745 12.1 241.585 13.42 241.485 15.58H248.945C248.945 15.48 248.945 15.38 248.945 15.28C248.945 13.2 247.625 12.1 245.305 12.1ZM256.888 21.2C253.728 21.2 251.668 19.06 251.668 16.06C251.668 13.06 253.728 10.92 256.888 10.92C259.648 10.92 261.808 12.56 261.808 14.94V15.1H260.408V14.98C260.408 13.22 259.128 12.22 256.868 12.22C254.228 12.22 253.088 13.64 253.088 16.06C253.088 18.48 254.228 19.9 256.868 19.9C259.128 19.9 260.408 18.9 260.408 17.14V17.02H261.808V17.18C261.808 19.56 259.648 21.2 256.888 21.2ZM269.771 21H267.631C265.671 21 264.411 20.18 264.411 17.86V12.34H262.651V11.12H264.411V8.76H265.851V11.12H269.771V12.34H265.851V17.94C265.851 19.32 266.531 19.7 267.971 19.7H269.771V21Z" fill="black"/>
</svg>
