<svg width="361" height="40" viewBox="0 0 361 40" fill="none" xmlns="http://www.w3.org/2000/svg">
<path d="M10.6133 23.5605C12.2129 22.2975 14.5543 22.6969 15.6445 24.4189L22.1709 34.7275C23.6189 37.0147 21.9756 40 19.2686 40H3.49316C1.59622 39.9997 0.0585938 38.4615 0.0585938 36.5645V33.5586C0.0586026 32.5074 0.540221 31.5137 1.36523 30.8623L10.6133 23.5605ZM32.4102 6.66602C33.5182 5.72084 35.1865 5.86795 36.1123 6.99219L39.3584 10.9346C40.3456 12.1335 40.0715 13.9243 38.7705 14.7725L35.3193 17.0215C33.3064 18.3339 33.3325 21.2914 35.3682 22.5684L38.7783 24.707C40.0812 25.5243 40.3961 27.2869 39.457 28.5049L36.4258 32.4365C35.4023 33.7635 33.4098 33.7934 32.3477 32.4971L23.7051 21.9463C21.6015 19.378 21.9393 15.598 24.4648 13.4434L32.4102 6.66602ZM21.2246 0C23.7021 2.43426e-05 24.7514 3.1556 22.7676 4.63965L4.11914 18.5898C2.42035 19.8602 0 18.6477 0 16.5264V2.57617C8.75112e-05 1.15343 1.15343 8.86733e-05 2.57617 0H21.2246Z" fill="black"/>
<path d="M54.1593 28.5H52.266V10.6333H54.1593V18.6867H60.3727L65.9994 10.6333H68.266L61.9993 19.46L68.2927 28.5H66.026L60.426 20.5267H54.1593V28.5ZM76.5014 28.7667C72.2614 28.7667 69.5681 26.1 69.5681 21.9133C69.5681 17.9133 72.2348 15.06 76.4748 15.06C80.3414 15.06 83.0881 17.3 83.0881 21.22C83.0881 21.7 83.0348 22.1 82.9548 22.4467H71.3548C71.4614 25.4067 72.9814 27.1933 76.4748 27.1933C79.5681 27.1933 81.0081 26.0467 81.0081 24.1267V23.94H82.9014V24.1267C82.9014 26.8733 80.1814 28.7667 76.5014 28.7667ZM76.4481 16.6333C73.0348 16.6333 71.4881 18.3933 71.3548 21.2733H81.3014C81.3014 21.14 81.3014 21.0067 81.3014 20.8733C81.3014 18.1 79.5414 16.6333 76.4481 16.6333ZM87.306 28.5H85.5994V10.6333H87.4927V19.0067H87.626C88.186 16.74 90.0794 15.06 93.2527 15.06C97.386 15.06 99.6527 17.9133 99.6527 21.9133C99.6527 25.9133 97.386 28.7667 93.0927 28.7667C90.1594 28.7667 88.0527 27.2467 87.4394 24.6067H87.306V28.5ZM87.4927 22.1267C87.4927 25.2467 89.466 27.0333 92.6394 27.0333C95.786 27.0333 97.7327 25.7267 97.7327 21.9133C97.7327 18.1 95.7327 16.82 92.6927 16.82C89.3594 16.82 87.4927 18.6333 87.4927 21.8867V22.1267ZM108.246 28.7667C104.006 28.7667 101.313 26.1 101.313 21.9133C101.313 17.9133 103.98 15.06 108.22 15.06C112.086 15.06 114.833 17.3 114.833 21.22C114.833 21.7 114.78 22.1 114.7 22.4467H103.1C103.206 25.4067 104.726 27.1933 108.22 27.1933C111.313 27.1933 112.753 26.0467 112.753 24.1267V23.94H114.646V24.1267C114.646 26.8733 111.926 28.7667 108.246 28.7667ZM108.193 16.6333C104.78 16.6333 103.233 18.3933 103.1 21.2733H113.046C113.046 21.14 113.046 21.0067 113.046 20.8733C113.046 18.1 111.286 16.6333 108.193 16.6333ZM125.424 28.5H122.571C119.957 28.5 118.277 27.4067 118.277 24.3133V16.9533H115.931V15.3267H118.277V12.18H120.197V15.3267H125.424V16.9533H120.197V24.42C120.197 26.26 121.104 26.7667 123.024 26.7667H125.424V28.5ZM133.02 28.7667C129.26 28.7667 127.42 26.1533 127.42 23.0333V15.3267H129.314V22.74C129.314 25.4867 130.647 27.06 133.687 27.06C136.914 27.06 138.594 25.1133 138.594 21.7267V15.3267H140.487V28.5H138.78V24.3933H138.647C138.194 26.6333 136.3 28.7667 133.02 28.7667ZM145.566 28.5H143.672V10.6333H145.566V28.5ZM152.404 28.7667C149.817 28.7667 148.057 27.54 148.057 25.4067C148.057 23.2467 149.844 22.3133 152.297 22.0467L158.564 21.3533V20.34C158.564 17.78 157.444 16.7667 154.564 16.7667C151.737 16.7667 150.244 17.78 150.244 20.1V20.2067H148.35V20.1C148.35 17.3267 150.644 15.06 154.697 15.06C158.697 15.06 160.404 17.3533 160.404 20.26V28.5H158.697V24.9533H158.564C157.79 27.38 155.47 28.7667 152.404 28.7667ZM149.95 25.2733C149.95 26.6067 150.83 27.3 152.83 27.3C156.03 27.3 158.564 25.8867 158.564 22.7133V22.6067L152.884 23.2467C150.91 23.4333 149.95 23.9133 149.95 25.2733ZM165.409 28.5H163.516V15.3267H165.223V19.46H165.356C165.809 17.22 167.676 15.06 170.956 15.06C174.663 15.06 176.503 17.7 176.503 20.82V28.5H174.609V21.0867C174.609 18.3667 173.303 16.7933 170.289 16.7933C167.089 16.7933 165.409 18.74 165.409 22.1267V28.5ZM191.413 28.7667C186.16 28.7667 183.706 26.26 183.706 22.8467V22.6867H185.626V23.0333C185.626 25.5933 187.226 26.98 191.413 26.98C194.986 26.98 196.613 25.9933 196.613 23.9667C196.613 21.9667 195.413 21.2467 192.8 20.7133L189.013 19.9933C186.106 19.4333 183.786 18.2067 183.786 15.2467C183.786 12.82 185.866 10.3667 190.986 10.3667C196.026 10.3667 198.266 13.0333 198.266 16.2867V16.4467H196.346V16.1267C196.346 13.54 194.746 12.1533 190.853 12.1533C187.306 12.1533 185.706 13.1667 185.706 15.1133C185.706 17.14 186.88 17.7533 189.52 18.3133L193.28 19.06C196.48 19.6733 198.533 21.0333 198.533 23.8067C198.533 26.3667 196.373 28.7667 191.413 28.7667ZM207.257 28.7667C203.017 28.7667 200.323 26.1 200.323 21.9133C200.323 17.9133 202.99 15.06 207.23 15.06C211.097 15.06 213.843 17.3 213.843 21.22C213.843 21.7 213.79 22.1 213.71 22.4467H202.11C202.217 25.4067 203.737 27.1933 207.23 27.1933C210.323 27.1933 211.763 26.0467 211.763 24.1267V23.94H213.657V24.1267C213.657 26.8733 210.937 28.7667 207.257 28.7667ZM207.203 16.6333C203.79 16.6333 202.243 18.3933 202.11 21.2733H212.057C212.057 21.14 212.057 21.0067 212.057 20.8733C212.057 18.1 210.297 16.6333 207.203 16.6333ZM218.248 28.5H216.355V15.3267H218.061V18.9267H218.195C218.595 16.82 220.088 15.06 222.835 15.06C225.875 15.06 227.208 17.3 227.208 19.7533V21.06H225.315V20.0467C225.315 17.8067 224.381 16.7133 222.088 16.7133C219.421 16.7133 218.248 18.3933 218.248 21.3533V28.5ZM231.295 13.6467H229.401V10.6333H231.295V13.6467ZM231.295 28.5H229.401V15.3267H231.295V28.5ZM240 28.7667C236.24 28.7667 234.4 26.1533 234.4 23.0333V15.3267H236.293V22.74C236.293 25.4867 237.626 27.06 240.666 27.06C243.893 27.06 245.573 25.1133 245.573 21.7267V15.3267H247.466V28.5H245.76V24.3933H245.626C245.173 26.6333 243.28 28.7667 240 28.7667ZM256.438 28.7667C252.385 28.7667 250.038 27.14 250.038 24.1V24.0467H251.931V24.2067C251.931 26.42 253.238 27.1933 256.465 27.1933C259.425 27.1933 260.438 26.5 260.438 24.98C260.438 23.5933 259.611 23.14 257.425 22.7933L253.905 22.2867C251.505 21.9667 249.985 21.0333 249.985 18.8467C249.985 16.5267 252.198 15.06 255.825 15.06C259.611 15.06 262.065 16.66 262.065 19.7533V19.8067H260.171V19.6733C260.171 17.7 259.131 16.6333 255.771 16.6333C252.998 16.6333 251.851 17.3 251.851 18.8733C251.851 20.2333 252.545 20.7133 254.731 21.0333L257.958 21.4867C260.785 21.8867 262.305 22.8467 262.305 24.98C262.305 27.46 259.851 28.7667 256.438 28.7667ZM271.581 28.5H269.688V10.6333H277.901C281.768 10.6333 284.488 12.8467 284.488 16.66C284.488 20.5 281.768 22.7133 277.901 22.7133H271.581V28.5ZM277.741 12.3667H271.581V20.98H277.741C280.888 20.98 282.568 19.7 282.568 16.66C282.568 13.6733 280.888 12.3667 277.741 12.3667ZM288.43 28.5H286.537V15.3267H288.244V18.9267H288.377C288.777 16.82 290.27 15.06 293.017 15.06C296.057 15.06 297.39 17.3 297.39 19.7533V21.06H295.497V20.0467C295.497 17.8067 294.564 16.7133 292.27 16.7133C289.604 16.7133 288.43 18.3933 288.43 21.3533V28.5ZM306.037 28.7667C301.744 28.7667 298.89 25.9133 298.89 21.9133C298.89 17.9133 301.744 15.06 306.037 15.06C310.357 15.06 313.21 17.9133 313.21 21.9133C313.21 25.9133 310.357 28.7667 306.037 28.7667ZM306.037 27.06C309.664 27.06 311.344 25.1133 311.344 21.9133C311.344 18.74 309.664 16.7667 306.037 16.7667C302.41 16.7667 300.757 18.74 300.757 21.9133C300.757 25.1133 302.41 27.06 306.037 27.06ZM317.65 13.6467H315.756V10.6333H317.65V13.6467ZM313.57 33.0333H312.556V31.4867H313.676C315.01 31.4867 315.756 30.9533 315.756 29.5133V15.3267H317.65V29.1133C317.65 31.9933 315.89 33.0333 313.57 33.0333ZM327.126 28.7667C322.886 28.7667 320.193 26.1 320.193 21.9133C320.193 17.9133 322.86 15.06 327.1 15.06C330.966 15.06 333.713 17.3 333.713 21.22C333.713 21.7 333.66 22.1 333.58 22.4467H321.98C322.086 25.4067 323.606 27.1933 327.1 27.1933C330.193 27.1933 331.633 26.0467 331.633 24.1267V23.94H333.526V24.1267C333.526 26.8733 330.806 28.7667 327.126 28.7667ZM327.073 16.6333C323.66 16.6333 322.113 18.3933 321.98 21.2733H331.926C331.926 21.14 331.926 21.0067 331.926 20.8733C331.926 18.1 330.166 16.6333 327.073 16.6333ZM342.518 28.7667C338.304 28.7667 335.558 25.9133 335.558 21.9133C335.558 17.9133 338.304 15.06 342.518 15.06C346.198 15.06 349.078 17.2467 349.078 20.42V20.6333H347.211V20.4733C347.211 18.1267 345.504 16.7933 342.491 16.7933C338.971 16.7933 337.451 18.6867 337.451 21.9133C337.451 25.14 338.971 27.0333 342.491 27.0333C345.504 27.0333 347.211 25.7 347.211 23.3533V23.1933H349.078V23.4067C349.078 26.58 346.198 28.7667 342.518 28.7667ZM359.695 28.5H356.842C354.228 28.5 352.548 27.4067 352.548 24.3133V16.9533H350.202V15.3267H352.548V12.18H354.468V15.3267H359.695V16.9533H354.468V24.42C354.468 26.26 355.375 26.7667 357.295 26.7667H359.695V28.5Z" fill="black"/>
</svg>
