<svg width="40" height="40" viewBox="0 0 40 40" fill="none" xmlns="http://www.w3.org/2000/svg">
<path d="M10.6133 23.5605C12.2129 22.2975 14.5543 22.6969 15.6445 24.4189L22.1709 34.7275C23.619 37.0147 21.9756 40 19.2686 40H3.49414C1.59698 40 0.0585938 38.4616 0.0585938 36.5645V33.5586C0.0586026 32.5074 0.540221 31.5137 1.36523 30.8623L10.6133 23.5605ZM32.4102 6.66602C33.5181 5.72086 35.1865 5.868 36.1123 6.99219L39.3584 10.9346C40.3456 12.1335 40.0715 13.9243 38.7705 14.7725L35.3193 17.0215C33.3066 18.3339 33.3326 21.2914 35.3682 22.5684L38.7783 24.707C40.0812 25.5243 40.3961 27.2869 39.457 28.5049L36.4258 32.4365C35.4023 33.7635 33.4097 33.7934 32.3477 32.4971L23.7051 21.9463C21.6015 19.378 21.9394 15.598 24.4648 13.4434L32.4102 6.66602ZM21.2246 0C23.7021 2.43426e-05 24.7514 3.1556 22.7676 4.63965L4.11914 18.5898C2.42035 19.8602 0 18.6477 0 16.5264V2.57617C8.75112e-05 1.15343 1.15343 8.86733e-05 2.57617 0H21.2246Z" fill="black"/>
</svg>
