<svg width="30" height="30" viewBox="0 0 30 30" fill="none" xmlns="http://www.w3.org/2000/svg">
<path d="M7.95996 17.6699C9.15958 16.7228 10.9156 17.0222 11.7334 18.3135L16.6279 26.0459C17.7138 27.7611 16.4821 29.9997 14.4521 30H2.62012C1.19739 29.9999 0.0440413 28.8466 0.0439453 27.4238V25.1689C0.0439516 24.3807 0.40493 23.636 1.02344 23.1475L7.95996 17.6699ZM24.3086 4.99902C25.1395 4.29058 26.3897 4.40049 27.084 5.24316L29.5195 8.2002C30.2598 9.09938 30.0538 10.443 29.0781 11.0791L26.4902 12.7656C24.9803 13.7498 24.9996 15.968 26.5264 16.9258L29.084 18.5303C30.0611 19.1432 30.2969 20.4645 29.5928 21.3779L27.3193 24.3271C26.5517 25.3226 25.0573 25.3446 24.2607 24.3721L17.7793 16.459C16.2017 14.5328 16.4545 11.698 18.3486 10.082L24.3086 4.99902ZM15.918 0C17.776 0 18.5638 2.36639 17.0762 3.47949L3.08984 13.9424C1.81573 14.8955 0 13.9857 0 12.3945V1.93262C0 0.865464 0.865464 0 1.93262 0H15.918Z" fill="white"/>
</svg>
